<?xml version="1.0" encoding="UTF-8"?>
<svg id="Layer_1" xmlns="http://www.w3.org/2000/svg" version="1.1" viewBox="0 0 650 650">
  <!-- Generator: Adobe Illustrator 29.0.0, SVG Export Plug-In . SVG Version: 2.1.0 Build 186)  -->
  <defs>
    <style>
      .st0 {
        fill: #fff;
      }
    </style>
  </defs>
  <path class="st0" d="M36.5,69.8C-1,107.4-1,168.2,36.5,205.7l52.9,52.9c.4-.5.8-.9,1.3-1.3L224,124c.4-.4.9-.9,1.3-1.2l-52.9-52.9c-37.5-37.5-98.4-37.5-135.9,0Z"/>
  <path class="st0" d="M260.6,158c-.4.5-.8.9-1.2,1.3l-133.3,133.3c-.4.4-.9.9-1.3,1.2l319.6,319.6c37.5,37.5,98.4,37.5,135.9,0,37.5-37.5,37.5-98.4,0-135.9L260.6,158Z"/>
  <path class="st0" d="M445,18.6c5.4-13.7,24.6-13.7,30,0l14.3,36.5c1.6,4.2,4.9,7.5,9.1,9.1l36.4,14.4c13.6,5.4,13.6,24.7,0,30.1l-36.4,14.4c-4.2,1.6-7.4,4.9-9.1,9.1l-14.3,36.5c-5.4,13.7-24.6,13.7-30,0l-14.3-36.5c-1.6-4.2-4.9-7.5-9.1-9.1l-36.4-14.4c-13.6-5.4-13.6-24.7,0-30.1l36.4-14.4c4.2-1.6,7.4-4.9,9.1-9.1l14.3-36.5Z"/>
  <path class="st0" d="M573.9,246c5.4-13.7,24.6-13.7,30,0l5.2,13.3c1.6,4.2,4.9,7.5,9.1,9.1l13.3,5.3c13.6,5.4,13.6,24.7,0,30.1l-13.3,5.3c-4.2,1.6-7.4,4.9-9.1,9.1l-5.2,13.3c-5.4,13.7-24.6,13.7-30,0l-5.2-13.3c-1.6-4.2-4.9-7.5-9.1-9.1l-13.3-5.3c-13.6-5.4-13.6-24.7,0-30.1l13.3-5.3c4.2-1.6,7.4-4.9,9.1-9.1l5.2-13.3Z"/>
  <path class="st0" d="M79.4,451.9c5.4-13.7,24.6-13.7,30,0l5.2,13.3c1.6,4.2,4.9,7.5,9.1,9.1l13.3,5.2c13.6,5.4,13.6,24.7,0,30.1l-13.3,5.2c-4.2,1.6-7.4,4.9-9.1,9.1l-5.2,13.3c-5.4,13.7-24.6,13.7-30,0l-5.2-13.3c-1.6-4.2-4.9-7.5-9.1-9.1l-13.3-5.2c-13.6-5.4-13.6-24.7,0-30.1l13.3-5.2c4.2-1.6,7.4-4.9,9.1-9.1l5.2-13.3Z"/>
</svg>